<mxfile host="65bd71144e">
    <diagram id="awwQLbMp61nxiMoSuy3x" name="Page-1">
        <mxGraphModel dx="536" dy="540" grid="1" gridSize="10" guides="1" tooltips="1" connect="1" arrows="1" fold="1" page="1" pageScale="1" pageWidth="850" pageHeight="1100" math="0" shadow="0">
            <root>
                <mxCell id="0"/>
                <mxCell id="1" parent="0"/>
                <mxCell id="2" value="Computador anfritrión" style="rounded=0;whiteSpace=wrap;html=1;fillColor=none;fontColor=light-dark(#FFFFFF,#006EAF);strokeColor=light-dark(#006EAF,#006EAF);verticalAlign=top;" parent="1" vertex="1">
                    <mxGeometry x="40" y="40" width="210" height="220" as="geometry"/>
                </mxCell>
                <mxCell id="3" value="Sistema operativo" style="rounded=0;whiteSpace=wrap;html=1;fillColor=none;fontColor=light-dark(#FFFFFF,#006EAF);strokeColor=light-dark(#006EAF,#006EAF);" parent="1" vertex="1">
                    <mxGeometry x="40" y="260" width="210" height="40" as="geometry"/>
                </mxCell>
                <mxCell id="8" value="" style="group" vertex="1" connectable="0" parent="1">
                    <mxGeometry x="50" y="70" width="190" height="80" as="geometry"/>
                </mxCell>
                <mxCell id="4" value="VM1" style="rounded=0;whiteSpace=wrap;html=1;fillColor=none;fontColor=light-dark(#FFFFFF,#006EAF);strokeColor=light-dark(#006EAF,#006EAF);" parent="8" vertex="1">
                    <mxGeometry x="10" y="10" width="50" height="40" as="geometry"/>
                </mxCell>
                <mxCell id="5" value="VM2" style="rounded=0;whiteSpace=wrap;html=1;fillColor=none;fontColor=light-dark(#FFFFFF,#006EAF);strokeColor=light-dark(#006EAF,#006EAF);" parent="8" vertex="1">
                    <mxGeometry x="70" y="10" width="50" height="40" as="geometry"/>
                </mxCell>
                <mxCell id="6" value="VM3" style="rounded=0;whiteSpace=wrap;html=1;fillColor=none;fontColor=light-dark(#FFFFFF,#006EAF);strokeColor=light-dark(#006EAF,#006EAF);" parent="8" vertex="1">
                    <mxGeometry x="130" y="10" width="50" height="40" as="geometry"/>
                </mxCell>
                <mxCell id="7" value="Hipervisor huésped" style="rounded=0;whiteSpace=wrap;html=1;fillColor=none;fontColor=light-dark(#FFFFFF,#006EAF);strokeColor=light-dark(#006EAF,#006EAF);verticalAlign=bottom;" vertex="1" parent="8">
                    <mxGeometry width="190" height="80" as="geometry"/>
                </mxCell>
                <mxCell id="9" value="Otras aplicaciones" style="rounded=0;whiteSpace=wrap;html=1;fillColor=none;fontColor=light-dark(#FFFFFF,#006EAF);strokeColor=light-dark(#006EAF,#006EAF);" vertex="1" parent="1">
                    <mxGeometry x="50" y="160" width="190" height="40" as="geometry"/>
                </mxCell>
                <mxCell id="10" value="Otras aplicaciones" style="rounded=0;whiteSpace=wrap;html=1;fillColor=none;fontColor=light-dark(#FFFFFF,#006EAF);strokeColor=light-dark(#006EAF,#006EAF);" vertex="1" parent="1">
                    <mxGeometry x="50" y="210" width="190" height="40" as="geometry"/>
                </mxCell>
            </root>
        </mxGraphModel>
    </diagram>
</mxfile>